ISO-10303-21;
HEADER;
FILE_DESCRIPTION(('Open CASCADE Model'),'2;1');
FILE_NAME('Open CASCADE Shape Model','2026-10-02T12:42:16',('Author'),(
    'Open CASCADE'),'Open CASCADE STEP processor 8.0','build123d',
  'Unknown');
FILE_SCHEMA(('AUTOMOTIVE_DESIGN { 1 0 10303 214 1 1 1 1 }'));
ENDSEC;
DATA;
#1 = APPLICATION_PROTOCOL_DEFINITION('international standard',
  'automotive_design',2000,#2);
#2 = APPLICATION_CONTEXT(
  'core data for automotive mechanical design processes');
#3 = SHAPE_DEFINITION_REPRESENTATION(#4,#10);
#4 = PRODUCT_DEFINITION_SHAPE('','',#5);
#5 = PRODUCT_DEFINITION('design','',#6,#9);
#6 = PRODUCT_DEFINITION_FORMATION('','',#7);
#7 = PRODUCT('COMPOUND','COMPOUND','',(#8));
#8 = PRODUCT_CONTEXT('',#2,'mechanical');
#9 = PRODUCT_DEFINITION_CONTEXT('part definition',#2,'design');
#10 = ADVANCED_BREP_SHAPE_REPRESENTATION('',(#11,#15),#565);
#11 = AXIS2_PLACEMENT_3D('',#12,#13,#14);
#12 = CARTESIAN_POINT('',(0.,0.,0.));
#13 = DIRECTION('',(0.,0.,1.));
#14 = DIRECTION('',(1.,0.,-0.));
#15 = MANIFOLD_SOLID_BREP('',#16);
#16 = CLOSED_SHELL('',(#17,#255,#368,#461,#504,#531,#558));
#17 = ADVANCED_FACE('',(#18),#32,.F.);
#18 = FACE_BOUND('',#19,.F.);
#19 = EDGE_LOOP('',(#20,#82,#168,#169));
#20 = ORIENTED_EDGE('',*,*,#21,.T.);
#21 = EDGE_CURVE('',#22,#24,#26,.T.);
#22 = VERTEX_POINT('',#23);
#23 = CARTESIAN_POINT('',(32.,-32.,2.5));
#24 = VERTEX_POINT('',#25);
#25 = CARTESIAN_POINT('',(32.,-32.,2.75));
#26 = SEAM_CURVE('',#27,(#31,#75),.PCURVE_S1.);
#27 = LINE('',#28,#29);
#28 = CARTESIAN_POINT('',(32.,-32.,2.5));
#29 = VECTOR('',#30,1.);
#30 = DIRECTION('',(0.,0.,1.));
#31 = PCURVE('',#32,#69);
#32 = SURFACE_OF_LINEAR_EXTRUSION('',#33,#67);
#33 = B_SPLINE_CURVE_WITH_KNOTS('',3,(#34,#35,#36,#37,#38,#39,#40,#41,
    #42,#43,#44,#45,#46,#47,#48,#49,#50,#51,#52,#53,#54,#55,#56,#57,#58,
    #59,#60,#61,#62,#63,#64,#65,#66),.UNSPECIFIED.,.T.,.F.,(1,1,2,1,1,1,
    1,1,1,1,1,1,1,1,1,1,1,1,1,1,1,1,1,1,1,1,1,1,1,1,1,1,2,1,1),(
    -16.70735260416,-8.353676302083,0.,29.835810626539,59.671621253078,
    89.481605447241,119.31741607378,149.15187735569,178.98768798223,
    208.58284798792,237.73580930222,267.13134942578,296.26004452205,
    325.93291850326,355.52573062763,384.70554488271,414.54135550925,
    444.15946067438,473.79579205682,503.63160268336,533.4674133099,
    541.82108961198,550.17476591406,558.52844221615,566.88211851823,
    575.23579482031,583.5894711224,591.94314742448,600.29682372656,
    608.65050002865,617.00417633073,625.35785263281,633.7115289349,
    663.54733956144,693.38315018797),.UNSPECIFIED.);
#34 = CARTESIAN_POINT('',(29.218983823738,-31.89399066454,2.5));
#35 = CARTESIAN_POINT('',(41.932617566664,-32.37862066269,2.5));
#36 = CARTESIAN_POINT('',(61.830685968997,-32.49359549848,2.5));
#37 = CARTESIAN_POINT('',(91.680567156708,-32.33681691929,2.5));
#38 = CARTESIAN_POINT('',(121.386476685,-35.42164252996,2.5));
#39 = CARTESIAN_POINT('',(151.03185962702,-38.40514010498,2.5));
#40 = CARTESIAN_POINT('',(180.59203713143,-43.39457104906,2.5));
#41 = CARTESIAN_POINT('',(210.59188015494,-39.70092095137,2.5));
#42 = CARTESIAN_POINT('',(238.86273715795,-35.29919373598,2.5));
#43 = CARTESIAN_POINT('',(270.05669597369,-24.4985270589,2.5));
#44 = CARTESIAN_POINT('',(273.99226193778,7.967306498417,2.5));
#45 = CARTESIAN_POINT('',(265.53168647782,38.734951195801,2.5));
#46 = CARTESIAN_POINT('',(234.66927993788,48.526866205431,2.5));
#47 = CARTESIAN_POINT('',(205.99264579875,52.720911711706,2.5));
#48 = CARTESIAN_POINT('',(175.97033596576,47.868425609548,2.5));
#49 = CARTESIAN_POINT('',(150.22787338312,32.740166002154,2.5));
#50 = CARTESIAN_POINT('',(120.88297203203,26.535832117626,2.5));
#51 = CARTESIAN_POINT('',(91.153298114747,23.861854591408,2.5));
#52 = CARTESIAN_POINT('',(61.611257871625,28.196414356953,2.5));
#53 = CARTESIAN_POINT('',(39.201365282904,32.945960723919,2.5));
#54 = CARTESIAN_POINT('',(23.620026822232,31.31186390938,2.5));
#55 = CARTESIAN_POINT('',(15.816883511001,28.018564492558,2.5));
#56 = CARTESIAN_POINT('',(9.112439133764,22.890755646999,2.5));
#57 = CARTESIAN_POINT('',(3.968857966126,16.182914907262,2.5));
#58 = CARTESIAN_POINT('',(0.735251475118,8.377584723952,2.5));
#59 = CARTESIAN_POINT('',(-0.367622514101,2.85661337688E-06,2.5));
#60 = CARTESIAN_POINT('',(0.735238581285,-8.377596150406,2.5));
#61 = CARTESIAN_POINT('',(3.968909541458,-16.18287491467,2.5));
#62 = CARTESIAN_POINT('',(9.112245726271,-22.89090419089,2.5));
#63 = CARTESIAN_POINT('',(15.817605565642,-28.01801030956,2.5));
#64 = CARTESIAN_POINT('',(23.617332011162,-31.31393209746,2.5));
#65 = CARTESIAN_POINT('',(29.218983823738,-31.89399066454,2.5));
#66 = CARTESIAN_POINT('',(41.932617566664,-32.37862066269,2.5));
#67 = VECTOR('',#68,1.);
#68 = DIRECTION('',(-0.,-0.,-1.));
#69 = DEFINITIONAL_REPRESENTATION('',(#70),#74);
#70 = LINE('',#71,#72);
#71 = CARTESIAN_POINT('',(0.,0.));
#72 = VECTOR('',#73,1.);
#73 = DIRECTION('',(0.,-1.));
#74 = ( GEOMETRIC_REPRESENTATION_CONTEXT(2) 
PARAMETRIC_REPRESENTATION_CONTEXT() REPRESENTATION_CONTEXT('2D SPACE',''
  ) );
#75 = PCURVE('',#32,#76);
#76 = DEFINITIONAL_REPRESENTATION('',(#77),#81);
#77 = LINE('',#78,#79);
#78 = CARTESIAN_POINT('',(633.7115289349,0.));
#79 = VECTOR('',#80,1.);
#80 = DIRECTION('',(0.,-1.));
#81 = ( GEOMETRIC_REPRESENTATION_CONTEXT(2) 
PARAMETRIC_REPRESENTATION_CONTEXT() REPRESENTATION_CONTEXT('2D SPACE',''
  ) );
#82 = ORIENTED_EDGE('',*,*,#83,.T.);
#83 = EDGE_CURVE('',#24,#24,#84,.T.);
#84 = SURFACE_CURVE('',#85,(#119,#126),.PCURVE_S1.);
#85 = B_SPLINE_CURVE_WITH_KNOTS('',3,(#86,#87,#88,#89,#90,#91,#92,#93,
    #94,#95,#96,#97,#98,#99,#100,#101,#102,#103,#104,#105,#106,#107,#108
    ,#109,#110,#111,#112,#113,#114,#115,#116,#117,#118),.UNSPECIFIED.,
  .T.,.F.,(1,1,2,1,1,1,1,1,1,1,1,1,1,1,1,1,1,1,1,1,1,1,1,1,1,1,1,1,1,1,1
    ,1,2,1,1),(-16.70735260416,-8.353676302083,0.,29.835810626539,
    59.671621253078,89.481605447241,119.31741607378,149.15187735569,
    178.98768798223,208.58284798792,237.73580930222,267.13134942578,
    296.26004452205,325.93291850326,355.52573062763,384.70554488271,
    414.54135550925,444.15946067438,473.79579205682,503.63160268336,
    533.4674133099,541.82108961198,550.17476591406,558.52844221615,
    566.88211851823,575.23579482031,583.5894711224,591.94314742448,
    600.29682372656,608.65050002865,617.00417633073,625.35785263281,
    633.7115289349,663.54733956144,693.38315018797),.UNSPECIFIED.);
#86 = CARTESIAN_POINT('',(29.218983823738,-31.89399066454,2.75));
#87 = CARTESIAN_POINT('',(41.932617566664,-32.37862066269,2.75));
#88 = CARTESIAN_POINT('',(61.830685968997,-32.49359549848,2.75));
#89 = CARTESIAN_POINT('',(91.680567156708,-32.33681691929,2.75));
#90 = CARTESIAN_POINT('',(121.386476685,-35.42164252996,2.75));
#91 = CARTESIAN_POINT('',(151.03185962702,-38.40514010498,2.75));
#92 = CARTESIAN_POINT('',(180.59203713143,-43.39457104906,2.75));
#93 = CARTESIAN_POINT('',(210.59188015494,-39.70092095137,2.75));
#94 = CARTESIAN_POINT('',(238.86273715795,-35.29919373598,2.75));
#95 = CARTESIAN_POINT('',(270.05669597369,-24.4985270589,2.75));
#96 = CARTESIAN_POINT('',(273.99226193778,7.967306498417,2.75));
#97 = CARTESIAN_POINT('',(265.53168647782,38.734951195801,2.75));
#98 = CARTESIAN_POINT('',(234.66927993788,48.526866205431,2.75));
#99 = CARTESIAN_POINT('',(205.99264579875,52.720911711706,2.75));
#100 = CARTESIAN_POINT('',(175.97033596576,47.868425609548,2.75));
#101 = CARTESIAN_POINT('',(150.22787338312,32.740166002154,2.75));
#102 = CARTESIAN_POINT('',(120.88297203203,26.535832117626,2.75));
#103 = CARTESIAN_POINT('',(91.153298114747,23.861854591408,2.75));
#104 = CARTESIAN_POINT('',(61.611257871625,28.196414356953,2.75));
#105 = CARTESIAN_POINT('',(39.201365282904,32.945960723919,2.75));
#106 = CARTESIAN_POINT('',(23.620026822232,31.31186390938,2.75));
#107 = CARTESIAN_POINT('',(15.816883511001,28.018564492558,2.75));
#108 = CARTESIAN_POINT('',(9.112439133764,22.890755646999,2.75));
#109 = CARTESIAN_POINT('',(3.968857966126,16.182914907262,2.75));
#110 = CARTESIAN_POINT('',(0.735251475118,8.377584723952,2.75));
#111 = CARTESIAN_POINT('',(-0.367622514101,2.85661337688E-06,2.75));
#112 = CARTESIAN_POINT('',(0.735238581285,-8.377596150406,2.75));
#113 = CARTESIAN_POINT('',(3.968909541458,-16.18287491467,2.75));
#114 = CARTESIAN_POINT('',(9.112245726271,-22.89090419089,2.75));
#115 = CARTESIAN_POINT('',(15.817605565642,-28.01801030956,2.75));
#116 = CARTESIAN_POINT('',(23.617332011162,-31.31393209746,2.75));
#117 = CARTESIAN_POINT('',(29.218983823738,-31.89399066454,2.75));
#118 = CARTESIAN_POINT('',(41.932617566664,-32.37862066269,2.75));
#119 = PCURVE('',#32,#120);
#120 = DEFINITIONAL_REPRESENTATION('',(#121),#125);
#121 = LINE('',#122,#123);
#122 = CARTESIAN_POINT('',(0.,-0.25));
#123 = VECTOR('',#124,1.);
#124 = DIRECTION('',(1.,0.));
#125 = ( GEOMETRIC_REPRESENTATION_CONTEXT(2) 
PARAMETRIC_REPRESENTATION_CONTEXT() REPRESENTATION_CONTEXT('2D SPACE',''
  ) );
#126 = PCURVE('',#127,#132);
#127 = PLANE('',#128);
#128 = AXIS2_PLACEMENT_3D('',#129,#130,#131);
#129 = CARTESIAN_POINT('',(138.97611308622,1.213827608193,2.75));
#130 = DIRECTION('',(0.,0.,1.));
#131 = DIRECTION('',(1.,0.,-0.));
#132 = DEFINITIONAL_REPRESENTATION('',(#133),#167);
#133 = B_SPLINE_CURVE_WITH_KNOTS('',3,(#134,#135,#136,#137,#138,#139,
    #140,#141,#142,#143,#144,#145,#146,#147,#148,#149,#150,#151,#152,
    #153,#154,#155,#156,#157,#158,#159,#160,#161,#162,#163,#164,#165,
    #166),.UNSPECIFIED.,.T.,.F.,(1,1,2,1,1,1,1,1,1,1,1,1,1,1,1,1,1,1,1,1
    ,1,1,1,1,1,1,1,1,1,1,1,1,2,1,1),(-16.70735260416,-8.353676302083,0.,
    29.835810626539,59.671621253078,89.481605447241,119.31741607378,
    149.15187735569,178.98768798223,208.58284798792,237.73580930222,
    267.13134942578,296.26004452205,325.93291850326,355.52573062763,
    384.70554488271,414.54135550925,444.15946067438,473.79579205682,
    503.63160268336,533.4674133099,541.82108961198,550.17476591406,
    558.52844221615,566.88211851823,575.23579482031,583.5894711224,
    591.94314742448,600.29682372656,608.65050002865,617.00417633073,
    625.35785263281,633.7115289349,663.54733956144,693.38315018797),
  .UNSPECIFIED.);
#134 = CARTESIAN_POINT('',(-109.7571292624,-33.10781827273));
#135 = CARTESIAN_POINT('',(-97.04349551956,-33.59244827088));
#136 = CARTESIAN_POINT('',(-77.14542711722,-33.70742310667));
#137 = CARTESIAN_POINT('',(-47.29554592951,-33.55064452748));
#138 = CARTESIAN_POINT('',(-17.58963640121,-36.63547013815));
#139 = CARTESIAN_POINT('',(12.055746540802,-39.61896771317));
#140 = CARTESIAN_POINT('',(41.615924045214,-44.60839865725));
#141 = CARTESIAN_POINT('',(71.615767068717,-40.91474855957));
#142 = CARTESIAN_POINT('',(99.886624071733,-36.51302134417));
#143 = CARTESIAN_POINT('',(131.08058288747,-25.7123546671));
#144 = CARTESIAN_POINT('',(135.01614885156,6.753478890223));
#145 = CARTESIAN_POINT('',(126.5555733916,37.521123587607));
#146 = CARTESIAN_POINT('',(95.69316685166,47.313038597238));
#147 = CARTESIAN_POINT('',(67.016532712527,51.507084103513));
#148 = CARTESIAN_POINT('',(36.994222879541,46.654598001354));
#149 = CARTESIAN_POINT('',(11.251760296898,31.52633839396));
#150 = CARTESIAN_POINT('',(-18.09314105418,25.322004509433));
#151 = CARTESIAN_POINT('',(-47.82281497147,22.648026983214));
#152 = CARTESIAN_POINT('',(-77.3648552146,26.98258674876));
#153 = CARTESIAN_POINT('',(-99.77474780332,31.732133115726));
#154 = CARTESIAN_POINT('',(-115.3560862639,30.098036301186));
#155 = CARTESIAN_POINT('',(-123.1592295752,26.804736884365));
#156 = CARTESIAN_POINT('',(-129.8636739524,21.676928038806));
#157 = CARTESIAN_POINT('',(-135.00725512,14.969087299069));
#158 = CARTESIAN_POINT('',(-138.2408616111,7.163757115759));
#159 = CARTESIAN_POINT('',(-139.3437356003,-1.21382475158));
#160 = CARTESIAN_POINT('',(-138.2408745049,-9.591423758599));
#161 = CARTESIAN_POINT('',(-135.0072035447,-17.39670252286));
#162 = CARTESIAN_POINT('',(-129.8638673599,-24.10473179908));
#163 = CARTESIAN_POINT('',(-123.1585075205,-29.23183791775));
#164 = CARTESIAN_POINT('',(-115.358781075,-32.52775970565));
#165 = CARTESIAN_POINT('',(-109.7571292624,-33.10781827273));
#166 = CARTESIAN_POINT('',(-97.04349551956,-33.59244827088));
#167 = ( GEOMETRIC_REPRESENTATION_CONTEXT(2) 
PARAMETRIC_REPRESENTATION_CONTEXT() REPRESENTATION_CONTEXT('2D SPACE',''
  ) );
#168 = ORIENTED_EDGE('',*,*,#21,.F.);
#169 = ORIENTED_EDGE('',*,*,#170,.F.);
#170 = EDGE_CURVE('',#22,#22,#171,.T.);
#171 = SURFACE_CURVE('',#172,(#206,#213),.PCURVE_S1.);
#172 = B_SPLINE_CURVE_WITH_KNOTS('',3,(#173,#174,#175,#176,#177,#178,
    #179,#180,#181,#182,#183,#184,#185,#186,#187,#188,#189,#190,#191,
    #192,#193,#194,#195,#196,#197,#198,#199,#200,#201,#202,#203,#204,
    #205),.UNSPECIFIED.,.T.,.F.,(1,1,2,1,1,1,1,1,1,1,1,1,1,1,1,1,1,1,1,1
    ,1,1,1,1,1,1,1,1,1,1,1,1,2,1,1),(-16.70735260416,-8.353676302083,0.,
    29.835810626539,59.671621253078,89.481605447241,119.31741607378,
    149.15187735569,178.98768798223,208.58284798792,237.73580930222,
    267.13134942578,296.26004452205,325.93291850326,355.52573062763,
    384.70554488271,414.54135550925,444.15946067438,473.79579205682,
    503.63160268336,533.4674133099,541.82108961198,550.17476591406,
    558.52844221615,566.88211851823,575.23579482031,583.5894711224,
    591.94314742448,600.29682372656,608.65050002865,617.00417633073,
    625.35785263281,633.7115289349,663.54733956144,693.38315018797),
  .UNSPECIFIED.);
#173 = CARTESIAN_POINT('',(29.218983823738,-31.89399066454,2.5));
#174 = CARTESIAN_POINT('',(41.932617566664,-32.37862066269,2.5));
#175 = CARTESIAN_POINT('',(61.830685968997,-32.49359549848,2.5));
#176 = CARTESIAN_POINT('',(91.680567156708,-32.33681691929,2.5));
#177 = CARTESIAN_POINT('',(121.386476685,-35.42164252996,2.5));
#178 = CARTESIAN_POINT('',(151.03185962702,-38.40514010498,2.5));
#179 = CARTESIAN_POINT('',(180.59203713143,-43.39457104906,2.5));
#180 = CARTESIAN_POINT('',(210.59188015494,-39.70092095137,2.5));
#181 = CARTESIAN_POINT('',(238.86273715795,-35.29919373598,2.5));
#182 = CARTESIAN_POINT('',(270.05669597369,-24.4985270589,2.5));
#183 = CARTESIAN_POINT('',(273.99226193778,7.967306498417,2.5));
#184 = CARTESIAN_POINT('',(265.53168647782,38.734951195801,2.5));
#185 = CARTESIAN_POINT('',(234.66927993788,48.526866205431,2.5));
#186 = CARTESIAN_POINT('',(205.99264579875,52.720911711706,2.5));
#187 = CARTESIAN_POINT('',(175.97033596576,47.868425609548,2.5));
#188 = CARTESIAN_POINT('',(150.22787338312,32.740166002154,2.5));
#189 = CARTESIAN_POINT('',(120.88297203203,26.535832117626,2.5));
#190 = CARTESIAN_POINT('',(91.153298114747,23.861854591408,2.5));
#191 = CARTESIAN_POINT('',(61.611257871625,28.196414356953,2.5));
#192 = CARTESIAN_POINT('',(39.201365282904,32.945960723919,2.5));
#193 = CARTESIAN_POINT('',(23.620026822232,31.31186390938,2.5));
#194 = CARTESIAN_POINT('',(15.816883511001,28.018564492558,2.5));
#195 = CARTESIAN_POINT('',(9.112439133764,22.890755646999,2.5));
#196 = CARTESIAN_POINT('',(3.968857966126,16.182914907262,2.5));
#197 = CARTESIAN_POINT('',(0.735251475118,8.377584723952,2.5));
#198 = CARTESIAN_POINT('',(-0.367622514101,2.85661337688E-06,2.5));
#199 = CARTESIAN_POINT('',(0.735238581285,-8.377596150406,2.5));
#200 = CARTESIAN_POINT('',(3.968909541458,-16.18287491467,2.5));
#201 = CARTESIAN_POINT('',(9.112245726271,-22.89090419089,2.5));
#202 = CARTESIAN_POINT('',(15.817605565642,-28.01801030956,2.5));
#203 = CARTESIAN_POINT('',(23.617332011162,-31.31393209746,2.5));
#204 = CARTESIAN_POINT('',(29.218983823738,-31.89399066454,2.5));
#205 = CARTESIAN_POINT('',(41.932617566664,-32.37862066269,2.5));
#206 = PCURVE('',#32,#207);
#207 = DEFINITIONAL_REPRESENTATION('',(#208),#212);
#208 = LINE('',#209,#210);
#209 = CARTESIAN_POINT('',(0.,0.));
#210 = VECTOR('',#211,1.);
#211 = DIRECTION('',(1.,0.));
#212 = ( GEOMETRIC_REPRESENTATION_CONTEXT(2) 
PARAMETRIC_REPRESENTATION_CONTEXT() REPRESENTATION_CONTEXT('2D SPACE',''
  ) );
#213 = PCURVE('',#214,#219);
#214 = PLANE('',#215);
#215 = AXIS2_PLACEMENT_3D('',#216,#217,#218);
#216 = CARTESIAN_POINT('',(138.97611308622,1.213827608193,2.5));
#217 = DIRECTION('',(0.,0.,1.));
#218 = DIRECTION('',(1.,0.,-0.));
#219 = DEFINITIONAL_REPRESENTATION('',(#220),#254);
#220 = B_SPLINE_CURVE_WITH_KNOTS('',3,(#221,#222,#223,#224,#225,#226,
    #227,#228,#229,#230,#231,#232,#233,#234,#235,#236,#237,#238,#239,
    #240,#241,#242,#243,#244,#245,#246,#247,#248,#249,#250,#251,#252,
    #253),.UNSPECIFIED.,.T.,.F.,(1,1,2,1,1,1,1,1,1,1,1,1,1,1,1,1,1,1,1,1
    ,1,1,1,1,1,1,1,1,1,1,1,1,2,1,1),(-16.70735260416,-8.353676302083,0.,
    29.835810626539,59.671621253078,89.481605447241,119.31741607378,
    149.15187735569,178.98768798223,208.58284798792,237.73580930222,
    267.13134942578,296.26004452205,325.93291850326,355.52573062763,
    384.70554488271,414.54135550925,444.15946067438,473.79579205682,
    503.63160268336,533.4674133099,541.82108961198,550.17476591406,
    558.52844221615,566.88211851823,575.23579482031,583.5894711224,
    591.94314742448,600.29682372656,608.65050002865,617.00417633073,
    625.35785263281,633.7115289349,663.54733956144,693.38315018797),
  .UNSPECIFIED.);
#221 = CARTESIAN_POINT('',(-109.7571292624,-33.10781827273));
#222 = CARTESIAN_POINT('',(-97.04349551956,-33.59244827088));
#223 = CARTESIAN_POINT('',(-77.14542711722,-33.70742310667));
#224 = CARTESIAN_POINT('',(-47.29554592951,-33.55064452748));
#225 = CARTESIAN_POINT('',(-17.58963640121,-36.63547013815));
#226 = CARTESIAN_POINT('',(12.055746540802,-39.61896771317));
#227 = CARTESIAN_POINT('',(41.615924045214,-44.60839865725));
#228 = CARTESIAN_POINT('',(71.615767068717,-40.91474855957));
#229 = CARTESIAN_POINT('',(99.886624071733,-36.51302134417));
#230 = CARTESIAN_POINT('',(131.08058288747,-25.7123546671));
#231 = CARTESIAN_POINT('',(135.01614885156,6.753478890223));
#232 = CARTESIAN_POINT('',(126.5555733916,37.521123587607));
#233 = CARTESIAN_POINT('',(95.69316685166,47.313038597238));
#234 = CARTESIAN_POINT('',(67.016532712527,51.507084103513));
#235 = CARTESIAN_POINT('',(36.994222879541,46.654598001354));
#236 = CARTESIAN_POINT('',(11.251760296898,31.52633839396));
#237 = CARTESIAN_POINT('',(-18.09314105418,25.322004509433));
#238 = CARTESIAN_POINT('',(-47.82281497147,22.648026983214));
#239 = CARTESIAN_POINT('',(-77.3648552146,26.98258674876));
#240 = CARTESIAN_POINT('',(-99.77474780332,31.732133115726));
#241 = CARTESIAN_POINT('',(-115.3560862639,30.098036301186));
#242 = CARTESIAN_POINT('',(-123.1592295752,26.804736884365));
#243 = CARTESIAN_POINT('',(-129.8636739524,21.676928038806));
#244 = CARTESIAN_POINT('',(-135.00725512,14.969087299069));
#245 = CARTESIAN_POINT('',(-138.2408616111,7.163757115759));
#246 = CARTESIAN_POINT('',(-139.3437356003,-1.21382475158));
#247 = CARTESIAN_POINT('',(-138.2408745049,-9.591423758599));
#248 = CARTESIAN_POINT('',(-135.0072035447,-17.39670252286));
#249 = CARTESIAN_POINT('',(-129.8638673599,-24.10473179908));
#250 = CARTESIAN_POINT('',(-123.1585075205,-29.23183791775));
#251 = CARTESIAN_POINT('',(-115.358781075,-32.52775970565));
#252 = CARTESIAN_POINT('',(-109.7571292624,-33.10781827273));
#253 = CARTESIAN_POINT('',(-97.04349551956,-33.59244827088));
#254 = ( GEOMETRIC_REPRESENTATION_CONTEXT(2) 
PARAMETRIC_REPRESENTATION_CONTEXT() REPRESENTATION_CONTEXT('2D SPACE',''
  ) );
#255 = ADVANCED_FACE('',(#256,#259),#214,.F.);
#256 = FACE_BOUND('',#257,.F.);
#257 = EDGE_LOOP('',(#258));
#258 = ORIENTED_EDGE('',*,*,#170,.T.);
#259 = FACE_BOUND('',#260,.F.);
#260 = EDGE_LOOP('',(#261,#292,#318,#344));
#261 = ORIENTED_EDGE('',*,*,#262,.F.);
#262 = EDGE_CURVE('',#263,#265,#267,.T.);
#263 = VERTEX_POINT('',#264);
#264 = CARTESIAN_POINT('',(115.1781746195,13.8,2.5));
#265 = VERTEX_POINT('',#266);
#266 = CARTESIAN_POINT('',(115.1781746195,18.2,2.5));
#267 = SURFACE_CURVE('',#268,(#273,#280),.PCURVE_S1.);
#268 = CIRCLE('',#269,5.3);
#269 = AXIS2_PLACEMENT_3D('',#270,#271,#272);
#270 = CARTESIAN_POINT('',(120.,16.,2.5));
#271 = DIRECTION('',(0.,0.,1.));
#272 = DIRECTION('',(1.,0.,-0.));
#273 = PCURVE('',#214,#274);
#274 = DEFINITIONAL_REPRESENTATION('',(#275),#279);
#275 = CIRCLE('',#276,5.3);
#276 = AXIS2_PLACEMENT_2D('',#277,#278);
#277 = CARTESIAN_POINT('',(-18.97611308622,14.786172391807));
#278 = DIRECTION('',(1.,0.));
#279 = ( GEOMETRIC_REPRESENTATION_CONTEXT(2) 
PARAMETRIC_REPRESENTATION_CONTEXT() REPRESENTATION_CONTEXT('2D SPACE',''
  ) );
#280 = PCURVE('',#281,#286);
#281 = CYLINDRICAL_SURFACE('',#282,5.3);
#282 = AXIS2_PLACEMENT_3D('',#283,#284,#285);
#283 = CARTESIAN_POINT('',(120.,16.,-1.));
#284 = DIRECTION('',(0.,0.,1.));
#285 = DIRECTION('',(1.,0.,-0.));
#286 = DEFINITIONAL_REPRESENTATION('',(#287),#291);
#287 = LINE('',#288,#289);
#288 = CARTESIAN_POINT('',(0.,3.5));
#289 = VECTOR('',#290,1.);
#290 = DIRECTION('',(1.,0.));
#291 = ( GEOMETRIC_REPRESENTATION_CONTEXT(2) 
PARAMETRIC_REPRESENTATION_CONTEXT() REPRESENTATION_CONTEXT('2D SPACE',''
  ) );
#292 = ORIENTED_EDGE('',*,*,#293,.T.);
#293 = EDGE_CURVE('',#263,#294,#296,.T.);
#294 = VERTEX_POINT('',#295);
#295 = CARTESIAN_POINT('',(110.2,13.8,2.5));
#296 = SURFACE_CURVE('',#297,(#301,#307),.PCURVE_S1.);
#297 = LINE('',#298,#299);
#298 = CARTESIAN_POINT('',(124.58805654311,13.8,2.5));
#299 = VECTOR('',#300,1.);
#300 = DIRECTION('',(-1.,-0.,0.));
#301 = PCURVE('',#214,#302);
#302 = DEFINITIONAL_REPRESENTATION('',(#303),#306);
#303 = B_SPLINE_CURVE_WITH_KNOTS('',1,(#304,#305),.UNSPECIFIED.,.F.,.F.,
  (2,2),(4.588056543113,14.388056543113),.PIECEWISE_BEZIER_KNOTS.);
#304 = CARTESIAN_POINT('',(-18.97611308622,12.586172391807));
#305 = CARTESIAN_POINT('',(-28.77611308622,12.586172391807));
#306 = ( GEOMETRIC_REPRESENTATION_CONTEXT(2) 
PARAMETRIC_REPRESENTATION_CONTEXT() REPRESENTATION_CONTEXT('2D SPACE',''
  ) );
#307 = PCURVE('',#308,#313);
#308 = PLANE('',#309);
#309 = AXIS2_PLACEMENT_3D('',#310,#311,#312);
#310 = CARTESIAN_POINT('',(110.2,13.8,-1.));
#311 = DIRECTION('',(-0.,1.,0.));
#312 = DIRECTION('',(0.,0.,1.));
#313 = DEFINITIONAL_REPRESENTATION('',(#314),#317);
#314 = B_SPLINE_CURVE_WITH_KNOTS('',1,(#315,#316),.UNSPECIFIED.,.F.,.F.,
  (2,2),(4.588056543113,14.388056543113),.PIECEWISE_BEZIER_KNOTS.);
#315 = CARTESIAN_POINT('',(3.5,9.8));
#316 = CARTESIAN_POINT('',(3.5,0.));
#317 = ( GEOMETRIC_REPRESENTATION_CONTEXT(2) 
PARAMETRIC_REPRESENTATION_CONTEXT() REPRESENTATION_CONTEXT('2D SPACE',''
  ) );
#318 = ORIENTED_EDGE('',*,*,#319,.T.);
#319 = EDGE_CURVE('',#294,#320,#322,.T.);
#320 = VERTEX_POINT('',#321);
#321 = CARTESIAN_POINT('',(110.2,18.2,2.5));
#322 = SURFACE_CURVE('',#323,(#327,#333),.PCURVE_S1.);
#323 = LINE('',#324,#325);
#324 = CARTESIAN_POINT('',(110.2,7.506913804097,2.5));
#325 = VECTOR('',#326,1.);
#326 = DIRECTION('',(-0.,1.,0.));
#327 = PCURVE('',#214,#328);
#328 = DEFINITIONAL_REPRESENTATION('',(#329),#332);
#329 = B_SPLINE_CURVE_WITH_KNOTS('',1,(#330,#331),.UNSPECIFIED.,.F.,.F.,
  (2,2),(6.293086195903,10.693086195903),.PIECEWISE_BEZIER_KNOTS.);
#330 = CARTESIAN_POINT('',(-28.77611308622,12.586172391807));
#331 = CARTESIAN_POINT('',(-28.77611308622,16.986172391807));
#332 = ( GEOMETRIC_REPRESENTATION_CONTEXT(2) 
PARAMETRIC_REPRESENTATION_CONTEXT() REPRESENTATION_CONTEXT('2D SPACE',''
  ) );
#333 = PCURVE('',#334,#339);
#334 = PLANE('',#335);
#335 = AXIS2_PLACEMENT_3D('',#336,#337,#338);
#336 = CARTESIAN_POINT('',(110.2,13.8,-1.));
#337 = DIRECTION('',(1.,0.,-0.));
#338 = DIRECTION('',(0.,0.,1.));
#339 = DEFINITIONAL_REPRESENTATION('',(#340),#343);
#340 = B_SPLINE_CURVE_WITH_KNOTS('',1,(#341,#342),.UNSPECIFIED.,.F.,.F.,
  (2,2),(6.293086195903,10.693086195903),.PIECEWISE_BEZIER_KNOTS.);
#341 = CARTESIAN_POINT('',(3.5,0.));
#342 = CARTESIAN_POINT('',(3.5,-4.4));
#343 = ( GEOMETRIC_REPRESENTATION_CONTEXT(2) 
PARAMETRIC_REPRESENTATION_CONTEXT() REPRESENTATION_CONTEXT('2D SPACE',''
  ) );
#344 = ORIENTED_EDGE('',*,*,#345,.F.);
#345 = EDGE_CURVE('',#265,#320,#346,.T.);
#346 = SURFACE_CURVE('',#347,(#351,#357),.PCURVE_S1.);
#347 = LINE('',#348,#349);
#348 = CARTESIAN_POINT('',(124.58805654311,18.2,2.5));
#349 = VECTOR('',#350,1.);
#350 = DIRECTION('',(-1.,-0.,0.));
#351 = PCURVE('',#214,#352);
#352 = DEFINITIONAL_REPRESENTATION('',(#353),#356);
#353 = B_SPLINE_CURVE_WITH_KNOTS('',1,(#354,#355),.UNSPECIFIED.,.F.,.F.,
  (2,2),(4.588056543113,14.388056543113),.PIECEWISE_BEZIER_KNOTS.);
#354 = CARTESIAN_POINT('',(-18.97611308622,16.986172391807));
#355 = CARTESIAN_POINT('',(-28.77611308622,16.986172391807));
#356 = ( GEOMETRIC_REPRESENTATION_CONTEXT(2) 
PARAMETRIC_REPRESENTATION_CONTEXT() REPRESENTATION_CONTEXT('2D SPACE',''
  ) );
#357 = PCURVE('',#358,#363);
#358 = PLANE('',#359);
#359 = AXIS2_PLACEMENT_3D('',#360,#361,#362);
#360 = CARTESIAN_POINT('',(110.2,18.2,-1.));
#361 = DIRECTION('',(-0.,1.,0.));
#362 = DIRECTION('',(0.,0.,1.));
#363 = DEFINITIONAL_REPRESENTATION('',(#364),#367);
#364 = B_SPLINE_CURVE_WITH_KNOTS('',1,(#365,#366),.UNSPECIFIED.,.F.,.F.,
  (2,2),(4.588056543113,14.388056543113),.PIECEWISE_BEZIER_KNOTS.);
#365 = CARTESIAN_POINT('',(3.5,9.8));
#366 = CARTESIAN_POINT('',(3.5,0.));
#367 = ( GEOMETRIC_REPRESENTATION_CONTEXT(2) 
PARAMETRIC_REPRESENTATION_CONTEXT() REPRESENTATION_CONTEXT('2D SPACE',''
  ) );
#368 = ADVANCED_FACE('',(#369,#372),#127,.T.);
#369 = FACE_BOUND('',#370,.T.);
#370 = EDGE_LOOP('',(#371));
#371 = ORIENTED_EDGE('',*,*,#83,.T.);
#372 = FACE_BOUND('',#373,.T.);
#373 = EDGE_LOOP('',(#374,#400,#421,#442));
#374 = ORIENTED_EDGE('',*,*,#375,.F.);
#375 = EDGE_CURVE('',#376,#378,#380,.T.);
#376 = VERTEX_POINT('',#377);
#377 = CARTESIAN_POINT('',(115.1781746195,13.8,2.75));
#378 = VERTEX_POINT('',#379);
#379 = CARTESIAN_POINT('',(115.1781746195,18.2,2.75));
#380 = SURFACE_CURVE('',#381,(#386,#393),.PCURVE_S1.);
#381 = CIRCLE('',#382,5.3);
#382 = AXIS2_PLACEMENT_3D('',#383,#384,#385);
#383 = CARTESIAN_POINT('',(120.,16.,2.75));
#384 = DIRECTION('',(0.,0.,1.));
#385 = DIRECTION('',(1.,0.,-0.));
#386 = PCURVE('',#127,#387);
#387 = DEFINITIONAL_REPRESENTATION('',(#388),#392);
#388 = CIRCLE('',#389,5.3);
#389 = AXIS2_PLACEMENT_2D('',#390,#391);
#390 = CARTESIAN_POINT('',(-18.97611308622,14.786172391807));
#391 = DIRECTION('',(1.,0.));
#392 = ( GEOMETRIC_REPRESENTATION_CONTEXT(2) 
PARAMETRIC_REPRESENTATION_CONTEXT() REPRESENTATION_CONTEXT('2D SPACE',''
  ) );
#393 = PCURVE('',#281,#394);
#394 = DEFINITIONAL_REPRESENTATION('',(#395),#399);
#395 = LINE('',#396,#397);
#396 = CARTESIAN_POINT('',(0.,3.75));
#397 = VECTOR('',#398,1.);
#398 = DIRECTION('',(1.,0.));
#399 = ( GEOMETRIC_REPRESENTATION_CONTEXT(2) 
PARAMETRIC_REPRESENTATION_CONTEXT() REPRESENTATION_CONTEXT('2D SPACE',''
  ) );
#400 = ORIENTED_EDGE('',*,*,#401,.T.);
#401 = EDGE_CURVE('',#376,#402,#404,.T.);
#402 = VERTEX_POINT('',#403);
#403 = CARTESIAN_POINT('',(110.2,13.8,2.75));
#404 = SURFACE_CURVE('',#405,(#409,#415),.PCURVE_S1.);
#405 = LINE('',#406,#407);
#406 = CARTESIAN_POINT('',(124.58805654311,13.8,2.75));
#407 = VECTOR('',#408,1.);
#408 = DIRECTION('',(-1.,-0.,0.));
#409 = PCURVE('',#127,#410);
#410 = DEFINITIONAL_REPRESENTATION('',(#411),#414);
#411 = B_SPLINE_CURVE_WITH_KNOTS('',1,(#412,#413),.UNSPECIFIED.,.F.,.F.,
  (2,2),(4.588056543113,14.388056543113),.PIECEWISE_BEZIER_KNOTS.);
#412 = CARTESIAN_POINT('',(-18.97611308622,12.586172391807));
#413 = CARTESIAN_POINT('',(-28.77611308622,12.586172391807));
#414 = ( GEOMETRIC_REPRESENTATION_CONTEXT(2) 
PARAMETRIC_REPRESENTATION_CONTEXT() REPRESENTATION_CONTEXT('2D SPACE',''
  ) );
#415 = PCURVE('',#308,#416);
#416 = DEFINITIONAL_REPRESENTATION('',(#417),#420);
#417 = B_SPLINE_CURVE_WITH_KNOTS('',1,(#418,#419),.UNSPECIFIED.,.F.,.F.,
  (2,2),(4.588056543113,14.388056543113),.PIECEWISE_BEZIER_KNOTS.);
#418 = CARTESIAN_POINT('',(3.75,9.8));
#419 = CARTESIAN_POINT('',(3.75,0.));
#420 = ( GEOMETRIC_REPRESENTATION_CONTEXT(2) 
PARAMETRIC_REPRESENTATION_CONTEXT() REPRESENTATION_CONTEXT('2D SPACE',''
  ) );
#421 = ORIENTED_EDGE('',*,*,#422,.T.);
#422 = EDGE_CURVE('',#402,#423,#425,.T.);
#423 = VERTEX_POINT('',#424);
#424 = CARTESIAN_POINT('',(110.2,18.2,2.75));
#425 = SURFACE_CURVE('',#426,(#430,#436),.PCURVE_S1.);
#426 = LINE('',#427,#428);
#427 = CARTESIAN_POINT('',(110.2,7.506913804097,2.75));
#428 = VECTOR('',#429,1.);
#429 = DIRECTION('',(-0.,1.,0.));
#430 = PCURVE('',#127,#431);
#431 = DEFINITIONAL_REPRESENTATION('',(#432),#435);
#432 = B_SPLINE_CURVE_WITH_KNOTS('',1,(#433,#434),.UNSPECIFIED.,.F.,.F.,
  (2,2),(6.293086195903,10.693086195903),.PIECEWISE_BEZIER_KNOTS.);
#433 = CARTESIAN_POINT('',(-28.77611308622,12.586172391807));
#434 = CARTESIAN_POINT('',(-28.77611308622,16.986172391807));
#435 = ( GEOMETRIC_REPRESENTATION_CONTEXT(2) 
PARAMETRIC_REPRESENTATION_CONTEXT() REPRESENTATION_CONTEXT('2D SPACE',''
  ) );
#436 = PCURVE('',#334,#437);
#437 = DEFINITIONAL_REPRESENTATION('',(#438),#441);
#438 = B_SPLINE_CURVE_WITH_KNOTS('',1,(#439,#440),.UNSPECIFIED.,.F.,.F.,
  (2,2),(6.293086195903,10.693086195903),.PIECEWISE_BEZIER_KNOTS.);
#439 = CARTESIAN_POINT('',(3.75,0.));
#440 = CARTESIAN_POINT('',(3.75,-4.4));
#441 = ( GEOMETRIC_REPRESENTATION_CONTEXT(2) 
PARAMETRIC_REPRESENTATION_CONTEXT() REPRESENTATION_CONTEXT('2D SPACE',''
  ) );
#442 = ORIENTED_EDGE('',*,*,#443,.F.);
#443 = EDGE_CURVE('',#378,#423,#444,.T.);
#444 = SURFACE_CURVE('',#445,(#449,#455),.PCURVE_S1.);
#445 = LINE('',#446,#447);
#446 = CARTESIAN_POINT('',(124.58805654311,18.2,2.75));
#447 = VECTOR('',#448,1.);
#448 = DIRECTION('',(-1.,-0.,0.));
#449 = PCURVE('',#127,#450);
#450 = DEFINITIONAL_REPRESENTATION('',(#451),#454);
#451 = B_SPLINE_CURVE_WITH_KNOTS('',1,(#452,#453),.UNSPECIFIED.,.F.,.F.,
  (2,2),(4.588056543113,14.388056543113),.PIECEWISE_BEZIER_KNOTS.);
#452 = CARTESIAN_POINT('',(-18.97611308622,16.986172391807));
#453 = CARTESIAN_POINT('',(-28.77611308622,16.986172391807));
#454 = ( GEOMETRIC_REPRESENTATION_CONTEXT(2) 
PARAMETRIC_REPRESENTATION_CONTEXT() REPRESENTATION_CONTEXT('2D SPACE',''
  ) );
#455 = PCURVE('',#358,#456);
#456 = DEFINITIONAL_REPRESENTATION('',(#457),#460);
#457 = B_SPLINE_CURVE_WITH_KNOTS('',1,(#458,#459),.UNSPECIFIED.,.F.,.F.,
  (2,2),(4.588056543113,14.388056543113),.PIECEWISE_BEZIER_KNOTS.);
#458 = CARTESIAN_POINT('',(3.75,9.8));
#459 = CARTESIAN_POINT('',(3.75,0.));
#460 = ( GEOMETRIC_REPRESENTATION_CONTEXT(2) 
PARAMETRIC_REPRESENTATION_CONTEXT() REPRESENTATION_CONTEXT('2D SPACE',''
  ) );
#461 = ADVANCED_FACE('',(#462),#281,.F.);
#462 = FACE_BOUND('',#463,.F.);
#463 = EDGE_LOOP('',(#464,#483,#484,#503));
#464 = ORIENTED_EDGE('',*,*,#465,.F.);
#465 = EDGE_CURVE('',#263,#376,#466,.T.);
#466 = SURFACE_CURVE('',#467,(#471,#477),.PCURVE_S1.);
#467 = LINE('',#468,#469);
#468 = CARTESIAN_POINT('',(115.1781746195,13.8,-1.));
#469 = VECTOR('',#470,1.);
#470 = DIRECTION('',(0.,0.,1.));
#471 = PCURVE('',#281,#472);
#472 = DEFINITIONAL_REPRESENTATION('',(#473),#476);
#473 = B_SPLINE_CURVE_WITH_KNOTS('',1,(#474,#475),.UNSPECIFIED.,.F.,.F.,
  (2,2),(0.,10.),.PIECEWISE_BEZIER_KNOTS.);
#474 = CARTESIAN_POINT('',(3.56963914928,0.));
#475 = CARTESIAN_POINT('',(3.56963914928,10.));
#476 = ( GEOMETRIC_REPRESENTATION_CONTEXT(2) 
PARAMETRIC_REPRESENTATION_CONTEXT() REPRESENTATION_CONTEXT('2D SPACE',''
  ) );
#477 = PCURVE('',#308,#478);
#478 = DEFINITIONAL_REPRESENTATION('',(#479),#482);
#479 = B_SPLINE_CURVE_WITH_KNOTS('',1,(#480,#481),.UNSPECIFIED.,.F.,.F.,
  (2,2),(-2.400000000069E-06,10.0000024),.PIECEWISE_BEZIER_KNOTS.);
#480 = CARTESIAN_POINT('',(-2.400000000069E-06,4.978174619504));
#481 = CARTESIAN_POINT('',(10.0000024,4.978174619504));
#482 = ( GEOMETRIC_REPRESENTATION_CONTEXT(2) 
PARAMETRIC_REPRESENTATION_CONTEXT() REPRESENTATION_CONTEXT('2D SPACE',''
  ) );
#483 = ORIENTED_EDGE('',*,*,#262,.T.);
#484 = ORIENTED_EDGE('',*,*,#485,.T.);
#485 = EDGE_CURVE('',#265,#378,#486,.T.);
#486 = SURFACE_CURVE('',#487,(#491,#497),.PCURVE_S1.);
#487 = LINE('',#488,#489);
#488 = CARTESIAN_POINT('',(115.1781746195,18.2,-1.));
#489 = VECTOR('',#490,1.);
#490 = DIRECTION('',(0.,0.,1.));
#491 = PCURVE('',#281,#492);
#492 = DEFINITIONAL_REPRESENTATION('',(#493),#496);
#493 = B_SPLINE_CURVE_WITH_KNOTS('',1,(#494,#495),.UNSPECIFIED.,.F.,.F.,
  (2,2),(0.,10.),.PIECEWISE_BEZIER_KNOTS.);
#494 = CARTESIAN_POINT('',(8.996731465079,0.));
#495 = CARTESIAN_POINT('',(8.996731465079,10.));
#496 = ( GEOMETRIC_REPRESENTATION_CONTEXT(2) 
PARAMETRIC_REPRESENTATION_CONTEXT() REPRESENTATION_CONTEXT('2D SPACE',''
  ) );
#497 = PCURVE('',#358,#498);
#498 = DEFINITIONAL_REPRESENTATION('',(#499),#502);
#499 = B_SPLINE_CURVE_WITH_KNOTS('',1,(#500,#501),.UNSPECIFIED.,.F.,.F.,
  (2,2),(-2.400000000069E-06,10.0000024),.PIECEWISE_BEZIER_KNOTS.);
#500 = CARTESIAN_POINT('',(-2.400000000069E-06,4.978174619504));
#501 = CARTESIAN_POINT('',(10.0000024,4.978174619504));
#502 = ( GEOMETRIC_REPRESENTATION_CONTEXT(2) 
PARAMETRIC_REPRESENTATION_CONTEXT() REPRESENTATION_CONTEXT('2D SPACE',''
  ) );
#503 = ORIENTED_EDGE('',*,*,#375,.F.);
#504 = ADVANCED_FACE('',(#505),#358,.F.);
#505 = FACE_BOUND('',#506,.F.);
#506 = EDGE_LOOP('',(#507,#508,#529,#530));
#507 = ORIENTED_EDGE('',*,*,#345,.T.);
#508 = ORIENTED_EDGE('',*,*,#509,.T.);
#509 = EDGE_CURVE('',#320,#423,#510,.T.);
#510 = SURFACE_CURVE('',#511,(#515,#522),.PCURVE_S1.);
#511 = LINE('',#512,#513);
#512 = CARTESIAN_POINT('',(110.2,18.2,-1.));
#513 = VECTOR('',#514,1.);
#514 = DIRECTION('',(0.,0.,1.));
#515 = PCURVE('',#358,#516);
#516 = DEFINITIONAL_REPRESENTATION('',(#517),#521);
#517 = LINE('',#518,#519);
#518 = CARTESIAN_POINT('',(0.,0.));
#519 = VECTOR('',#520,1.);
#520 = DIRECTION('',(1.,0.));
#521 = ( GEOMETRIC_REPRESENTATION_CONTEXT(2) 
PARAMETRIC_REPRESENTATION_CONTEXT() REPRESENTATION_CONTEXT('2D SPACE',''
  ) );
#522 = PCURVE('',#334,#523);
#523 = DEFINITIONAL_REPRESENTATION('',(#524),#528);
#524 = LINE('',#525,#526);
#525 = CARTESIAN_POINT('',(0.,-4.4));
#526 = VECTOR('',#527,1.);
#527 = DIRECTION('',(1.,0.));
#528 = ( GEOMETRIC_REPRESENTATION_CONTEXT(2) 
PARAMETRIC_REPRESENTATION_CONTEXT() REPRESENTATION_CONTEXT('2D SPACE',''
  ) );
#529 = ORIENTED_EDGE('',*,*,#443,.F.);
#530 = ORIENTED_EDGE('',*,*,#485,.F.);
#531 = ADVANCED_FACE('',(#532),#334,.T.);
#532 = FACE_BOUND('',#533,.T.);
#533 = EDGE_LOOP('',(#534,#555,#556,#557));
#534 = ORIENTED_EDGE('',*,*,#535,.F.);
#535 = EDGE_CURVE('',#294,#402,#536,.T.);
#536 = SURFACE_CURVE('',#537,(#541,#548),.PCURVE_S1.);
#537 = LINE('',#538,#539);
#538 = CARTESIAN_POINT('',(110.2,13.8,-1.));
#539 = VECTOR('',#540,1.);
#540 = DIRECTION('',(0.,0.,1.));
#541 = PCURVE('',#334,#542);
#542 = DEFINITIONAL_REPRESENTATION('',(#543),#547);
#543 = LINE('',#544,#545);
#544 = CARTESIAN_POINT('',(0.,0.));
#545 = VECTOR('',#546,1.);
#546 = DIRECTION('',(1.,0.));
#547 = ( GEOMETRIC_REPRESENTATION_CONTEXT(2) 
PARAMETRIC_REPRESENTATION_CONTEXT() REPRESENTATION_CONTEXT('2D SPACE',''
  ) );
#548 = PCURVE('',#308,#549);
#549 = DEFINITIONAL_REPRESENTATION('',(#550),#554);
#550 = LINE('',#551,#552);
#551 = CARTESIAN_POINT('',(0.,0.));
#552 = VECTOR('',#553,1.);
#553 = DIRECTION('',(1.,0.));
#554 = ( GEOMETRIC_REPRESENTATION_CONTEXT(2) 
PARAMETRIC_REPRESENTATION_CONTEXT() REPRESENTATION_CONTEXT('2D SPACE',''
  ) );
#555 = ORIENTED_EDGE('',*,*,#319,.T.);
#556 = ORIENTED_EDGE('',*,*,#509,.T.);
#557 = ORIENTED_EDGE('',*,*,#422,.F.);
#558 = ADVANCED_FACE('',(#559),#308,.T.);
#559 = FACE_BOUND('',#560,.T.);
#560 = EDGE_LOOP('',(#561,#562,#563,#564));
#561 = ORIENTED_EDGE('',*,*,#293,.T.);
#562 = ORIENTED_EDGE('',*,*,#535,.T.);
#563 = ORIENTED_EDGE('',*,*,#401,.F.);
#564 = ORIENTED_EDGE('',*,*,#465,.F.);
#565 = ( GEOMETRIC_REPRESENTATION_CONTEXT(3) 
GLOBAL_UNCERTAINTY_ASSIGNED_CONTEXT((#569)) GLOBAL_UNIT_ASSIGNED_CONTEXT
((#566,#567,#568)) REPRESENTATION_CONTEXT('Context #1',
  '3D Context with UNIT and UNCERTAINTY') );
#566 = ( LENGTH_UNIT() NAMED_UNIT(*) SI_UNIT(.MILLI.,.METRE.) );
#567 = ( NAMED_UNIT(*) PLANE_ANGLE_UNIT() SI_UNIT($,.RADIAN.) );
#568 = ( NAMED_UNIT(*) SI_UNIT($,.STERADIAN.) SOLID_ANGLE_UNIT() );
#569 = UNCERTAINTY_MEASURE_WITH_UNIT(LENGTH_MEASURE(1.E-07),#566,
  'distance_accuracy_value','confusion accuracy');
#570 = PRODUCT_RELATED_PRODUCT_CATEGORY('part',$,(#7));
ENDSEC;
END-ISO-10303-21;
